My Little Pony: Friendship is Magic - S2-E01 - The Return of Harmony (Part 2) (1080p)

-----------------------------------------------------------------------------

General
Format                           : MPEG-4
Format profile                   : Base Media / Version 2
Codec ID                         : mp42
File size                        : 457 MiB
Duration                         : 21mn 56s
Overall bit rate mode            : Variable
Overall bit rate                 : 2 913 Kbps
Encoded date                     : UTC 2011-09-23 17:38:25
Tagged date                      : UTC 2011-09-23 17:38:25

Video
ID                               : 1
Format                           : AVC
Format/Info                      : Advanced Video Codec
Format profile                   : High@L4.0
Format settings, CABAC           : Yes
Format settings, ReFrames        : 1 frame
Format settings, GOP             : M=1, N=30
Codec ID                         : avc1
Codec ID/Info                    : Advanced Video Coding
Duration                         : 21mn 56s
Bit rate                         : 2 755 Kbps
Maximum bit rate                 : 7 982 Kbps
Width                            : 1 920 pixels
Height                           : 1 080 pixels
Display aspect ratio             : 16:9
Frame rate mode                  : Variable
Frame rate                       : 29.970 fps
Minimum frame rate               : 29.412 fps
Maximum frame rate               : 30.303 fps
Color space                      : YUV
Chroma subsampling               : 4:2:0
Bit depth                        : 8 bits
Scan type                        : Progressive
Bits/(Pixel*Frame)               : 0.044
Stream size                      : 432 MiB (95%)
Tagged date                      : UTC 2011-09-23 17:38:47

Audio
ID                               : 2
Format                           : AAC
Format/Info                      : Advanced Audio Codec
Format profile                   : LC
Codec ID                         : 40
Duration                         : 21mn 56s
Bit rate mode                    : Variable
Bit rate                         : 152 Kbps
Maximum bit rate                 : 198 Kbps
Channel(s)                       : 2 channels
Channel positions                : Front: L R
Sampling rate                    : 44.1 KHz
Compression mode                 : Lossy
Stream size                      : 23.9 MiB (5%)
Title                            : IsoMedia File Produced by Google, 5-11-2011
Encoded date                     : UTC 2011-09-23 17:38:36
Tagged date                      : UTC 2011-09-23 17:38:47



-----------------------------------------------------------------------------

I will be uploading ALL MLP:FiM Season 2 episodes here as soon as possible after they are aired.

Have fun everypony, stay tuned for more MLP:FiM Season 2 episodes and be sure to seed :D

TorrentGuy96